<svg width="13" height="16" viewBox="0 0 13 16" fill="none" xmlns="http://www.w3.org/2000/svg">
<path d="M10.8575 9.21095C10.8656 8.65515 11.0284 8.11026 11.3306 7.62714C11.6328 7.14402 12.0647 6.73842 12.5858 6.44817C12.254 6.01859 11.8167 5.66518 11.3087 5.41588C10.8007 5.16659 10.2359 5.02827 9.65895 5.01187C8.426 4.89473 7.23182 5.68343 6.604 5.68343C5.96375 5.68343 4.99421 5.02584 3.9559 5.04581C3.28318 5.065 2.62738 5.24224 2.05229 5.5603C1.4772 5.87836 1.00242 6.32639 0.674117 6.86082C-0.745427 9.08982 0.313377 12.3651 1.67292 14.1661C2.35269 15.0487 3.14734 16.0337 4.18785 15.9991C5.20568 15.9605 5.58544 15.4101 6.81401 15.4101C8.0316 15.4101 8.38795 15.9991 9.44821 15.9765C10.5407 15.9605 11.2285 15.0906 11.8849 14.2001C12.374 13.5712 12.7504 12.8756 13 12.1395C12.366 11.8969 11.8246 11.4898 11.4436 10.9689C11.0625 10.448 10.8587 9.83659 10.8575 9.21095Z" fill="black"/>
<path d="M8.22656 2.78098C8.78261 2.00549 9.05664 1.00756 8.99023 0C8.14059 0.103335 7.35543 0.575409 6.79083 1.32238C6.51529 1.68655 6.30418 2.11052 6.16961 2.56998C6.03504 3.02944 5.97966 3.51534 6.00664 3.9998C6.43165 4.00523 6.85218 3.89838 7.23667 3.68728C7.62115 3.47619 7.95958 3.16633 8.22656 2.78098Z" fill="black"/>
</svg>
