<svg width="16" height="16" viewBox="0 0 16 16" fill="none" xmlns="http://www.w3.org/2000/svg">
<path d="M15.8299 8.1774C15.8299 7.65073 15.7833 7.15073 15.7033 6.66406H8.16992V9.67073H12.4833C12.2899 10.6574 11.7233 11.4907 10.8833 12.0574V14.0574H13.4566C14.9633 12.6641 15.8299 10.6107 15.8299 8.1774Z" fill="#4285F4"/>
<path d="M8.17027 15.9968C10.3303 15.9968 12.1369 15.2768 13.4569 14.0568L10.8836 12.0568C10.1636 12.5368 9.25027 12.8301 8.17027 12.8301C6.08361 12.8301 4.31694 11.4234 3.68361 9.52344H1.03027V11.5834C2.34361 14.1968 5.04361 15.9968 8.17027 15.9968Z" fill="#34A853"/>
<path d="M3.68326 9.52739C3.51659 9.04739 3.42992 8.53406 3.42992 8.00073C3.42992 7.46739 3.52326 6.95406 3.68326 6.47406V4.41406H1.02992C0.483255 5.49406 0.169922 6.70739 0.169922 8.00073C0.169922 9.29406 0.483255 10.5074 1.02992 11.5874L3.68326 9.52739Z" fill="#FBBC05"/>
<path d="M8.17027 3.16667C9.35027 3.16667 10.4036 3.57334 11.2369 4.36667L13.5169 2.08667C12.1369 0.793334 10.3303 0 8.17027 0C5.04361 0 2.34361 1.8 1.03027 4.41334L3.68361 6.47334C4.31694 4.57334 6.08361 3.16667 8.17027 3.16667Z" fill="#EA4335"/>
</svg>
