<svg width="16" height="16" viewBox="0 0 16 16" fill="none" xmlns="http://www.w3.org/2000/svg">
<circle cx="8" cy="8" r="8" fill="#4AAB50"/>
<g clip-path="url(#clip0_612_1842)">
<path d="M10.6034 6.00012L10.5047 6.00224C10.2163 6.0144 9.94104 6.07965 9.68776 6.1891C9.68776 6.1891 9.10257 6.28471 8.0864 7.61352L8.01805 7.69928C7.19475 6.56668 6.44758 6.24145 6.32874 6.19515C6.31368 6.18929 6.2988 6.18318 6.28392 6.17713C6.0166 6.06575 5.72568 6.00324 5.42096 6.00012C4.10024 5.98647 3.00968 7.10375 3.00006 8.48136C2.99039 9.87057 4.06708 10.9999 5.39664 10.9999L5.49534 10.9978C5.78382 10.9857 6.05903 10.9204 6.31231 10.811C6.31231 10.811 6.90873 10.7134 7.94276 9.34815L7.93852 9.354L7.962 9.38398C8.92428 10.5763 9.68776 10.8109 9.68776 10.8109C9.96978 10.9327 10.2792 10.9998 10.6034 10.9998C11.9271 10.9998 12.9999 9.88048 12.9999 8.49987C12.9999 7.11927 11.9271 6.00012 10.6034 6.00012ZM6.61058 9.38367C6.2755 9.75022 5.89418 10.0331 5.3866 10.0331C4.5749 10.0331 3.91693 9.34677 3.91693 8.5C3.91693 7.65347 4.57466 6.96719 5.386 6.96694C5.8395 6.96675 6.1995 7.2213 6.52998 7.52869C7.03355 7.99696 7.41631 8.45681 7.41631 8.45681C7.41631 8.45681 6.88776 9.08001 6.61058 9.38367ZM10.6141 10.0331C10.1606 10.0333 9.80057 9.77876 9.47009 9.47137C8.96652 9.0031 8.58376 8.54325 8.58376 8.54325C8.58376 8.54325 9.11225 7.92005 9.38943 7.61639C9.72451 7.24984 10.1059 6.967 10.6134 6.967C11.4251 6.967 12.0831 7.65329 12.0831 8.50006C12.0831 9.34652 11.4254 10.0329 10.6141 10.0331Z" fill="white"/>
</g>
<defs>
<clipPath id="clip0_612_1842">
<rect width="10" height="5" fill="white" transform="translate(3 6)"/>
</clipPath>
</defs>
</svg>
