<svg width="16" height="16" viewBox="0 0 16 16" fill="none" xmlns="http://www.w3.org/2000/svg">
<circle cx="8" cy="8" r="8" fill="#CECECE"/>
<path d="M12 12.0018H4C4 10.3343 5.02032 8.90517 6.47072 8.30469C6.63072 8.42165 6.80368 8.51941 6.98784 8.59733C7.30864 8.73301 7.64912 8.80181 8 8.80181C8.35072 8.80181 8.69136 8.73301 9.01216 8.59733C9.19616 8.51941 9.36912 8.42165 9.52928 8.30469C10.9797 8.90517 12 10.3344 12 12.0018Z" fill="white"/>
<path d="M10.1998 6.2C10.1998 7.0376 9.73181 7.76576 9.043 8.13744C8.7326 8.30496 8.37724 8.4 7.9998 8.4C7.62236 8.4 7.267 8.30496 6.9566 8.13744C6.2678 7.76576 5.7998 7.0376 5.7998 6.2C5.7998 4.98496 6.78476 4 7.9998 4C9.21484 4 10.1998 4.98496 10.1998 6.2Z" fill="white"/>
</svg>
