<svg width="16" height="16" viewBox="0 0 16 16" fill="none" xmlns="http://www.w3.org/2000/svg">
<g clip-path="url(#clip0_612_1839)">
<path d="M15.9314 9.0566C16.5147 4.67676 13.4369 0.653413 9.05705 0.0702002C4.67721 -0.513012 0.653861 2.56476 0.0706484 6.9446C-0.512564 11.3244 2.56521 15.3478 6.94505 15.931C11.3249 16.5142 15.3482 13.4364 15.9314 9.0566Z" fill="#008EFF"/>
<path d="M10.301 13.2474H5.69958C5.31882 13.2474 5.00977 12.9383 5.00977 12.5576V3.44762C5.00977 3.06686 5.31882 2.75781 5.69958 2.75781H10.3C10.6808 2.75781 10.9898 3.06686 10.9898 3.44762V12.5576C10.9908 12.9383 10.6818 13.2474 10.301 13.2474Z" fill="white"/>
<path d="M8.45592 12.4867C8.45592 12.7382 8.2519 12.9422 8.00042 12.9422C7.74894 12.9422 7.54492 12.7382 7.54492 12.4867C7.54492 12.2353 7.74894 12.0312 8.00042 12.0312C8.2519 12.0313 8.45592 12.2353 8.45592 12.4867Z" fill="#008EFF"/>
<path d="M9.18574 3.48607H6.81432C6.7517 3.48607 6.7002 3.43557 6.7002 3.37194C6.7002 3.30831 6.7517 3.25781 6.81432 3.25781H9.18574C9.24836 3.25781 9.29987 3.30932 9.29987 3.37194C9.29987 3.43456 9.24836 3.48607 9.18574 3.48607Z" fill="#008EFF"/>
<path d="M10.4324 3.89062H5.56836V11.6866H10.4324V3.89062Z" fill="#008EFF"/>
</g>
<defs>
<clipPath id="clip0_612_1839">
<rect width="16" height="16" fill="white"/>
</clipPath>
</defs>
</svg>
