<svg width="16" height="16" viewBox="0 0 16 16" fill="none" xmlns="http://www.w3.org/2000/svg">
<circle cx="8" cy="8" r="8" fill="#B955D3"/>
<g clip-path="url(#clip0_612_1838)">
<path d="M8.17223 4.11253L9.2614 6.42511C9.29002 6.48512 9.34342 6.52513 9.40446 6.53513L11.8384 6.90523C11.9948 6.92923 12.0578 7.13128 11.9433 7.24731L10.1827 9.04776C10.1369 9.09377 10.1179 9.15979 10.1274 9.22381L10.5432 11.7664C10.5699 11.9305 10.4059 12.0545 10.2666 11.9765L8.09021 10.7762C8.03489 10.7462 7.96813 10.7462 7.91281 10.7762L5.73637 11.9765C5.59712 12.0545 5.43308 11.9285 5.45978 11.7664L5.87561 9.22381C5.88706 9.15979 5.86608 9.09177 5.8203 9.04776L4.05969 7.24731C3.94714 7.13128 4.00818 6.92923 4.1646 6.90523L6.59855 6.53513C6.6615 6.52513 6.71491 6.48512 6.74161 6.42511L7.83079 4.11253C7.89946 3.96249 8.10165 3.96249 8.17223 4.11253Z" fill="white"/>
</g>
<defs>
<clipPath id="clip0_612_1838">
<rect width="8" height="8" fill="white" transform="translate(4 4)"/>
</clipPath>
</defs>
</svg>
