<svg width="16" height="16" viewBox="0 0 16 16" fill="none" xmlns="http://www.w3.org/2000/svg">
<path d="M8 16C12.4183 16 16 12.4183 16 8C16 3.58172 12.4183 0 8 0C3.58172 0 0 3.58172 0 8C0 12.4183 3.58172 16 8 16Z" fill="#00A0C6"/>
<path d="M4.86753 9.17255L5.75541 12.0833C5.77071 12.1292 5.83816 12.1217 5.84287 12.0735L6.07347 9.67806C6.07464 9.66669 6.07974 9.6561 6.08837 9.64865L10.3368 5.9618C10.3776 5.92572 10.3309 5.8618 10.2843 5.88964L4.88753 9.11961C4.8691 9.13059 4.86086 9.15255 4.86753 9.17255Z" fill="#CAD9EC"/>
<path d="M5.84277 12.0821L11.5882 5.53906L6.07494 9.65926L5.84277 12.0821Z" fill="#B2C2D3"/>
<path d="M2.65548 8.00368L11.474 4.49057C11.6967 4.40194 11.9285 4.59685 11.8791 4.83137L10.3331 12.1843C10.2759 12.4572 9.95427 12.578 9.73151 12.4102L6.07486 9.65827L10.2751 5.93691L4.85637 9.13589L2.6696 8.42998C2.46763 8.36448 2.45821 8.08212 2.65548 8.00368Z" fill="#FDFFFC"/>
</svg>
