<svg width="26" height="16" viewBox="0 0 26 16" fill="none" xmlns="http://www.w3.org/2000/svg">
<g clip-path="url(#clip0_604_1941)">
<path d="M11.5571 10.2266L12.0892 10.6633H13.9304L13.9578 11.3586L10.8076 11.1817L11.5571 10.2266Z" fill="#121312"/>
<path d="M13.0721 6.73226L12.7861 6.4469L12.8833 5.65625L13.8628 6.63569L13.0721 6.73226Z" fill="#2A3030"/>
<path d="M13.0718 6.73067L12.7859 6.44531L12.0332 7.19858L12.3161 7.48145L13.0718 6.73067Z" fill="#2A3030"/>
<path d="M14.1875 6.95121C14.1308 7.00666 14.0405 7.00666 13.9844 6.95121L12.567 5.53377C12.5115 5.47831 12.5115 5.38735 12.567 5.33065C12.6231 5.2752 12.7134 5.2752 12.7695 5.33065L14.1875 6.7481C14.243 6.80417 14.243 6.89451 14.1875 6.95121Z" fill="#6B6B73"/>
<path d="M13.0362 6.90342C13.0169 6.92274 12.9857 6.92274 12.967 6.90342L12.6131 6.54953C12.5938 6.53084 12.5938 6.49968 12.6131 6.48099L12.6817 6.41246C12.701 6.39376 12.7321 6.39376 12.7508 6.41246L13.1041 6.76635C13.1234 6.78504 13.1234 6.81682 13.1041 6.83613L13.0362 6.90342Z" fill="#6B6B73"/>
<path d="M11.1631 11.2771C11.2085 11.2765 11.2578 11.241 11.2733 11.1986L12.5425 7.78615C12.5581 7.74378 12.5493 7.67961 12.5232 7.64347L11.9232 6.81481C11.897 6.77867 11.8384 6.74939 11.7936 6.75001L11.1768 6.76122C11.1319 6.76185 11.0839 6.79798 11.0702 6.83973L9.66088 11.2397C9.64717 11.2815 9.67334 11.3164 9.7182 11.3151L11.1631 11.2771Z" fill="#3A3B3B"/>
<path opacity="0.2" d="M11.1699 7.14506C11.2372 6.96064 11.2254 6.83728 11.1599 6.76562C11.1207 6.77372 11.0821 6.80425 11.0702 6.84164L9.66088 11.2416C9.64717 11.2834 9.67334 11.3183 9.7182 11.317L11.1637 11.2796C11.2092 11.279 11.2584 11.2435 11.274 11.2011L11.7506 9.92014C11.373 9.32201 10.7462 8.31017 11.1699 7.14506Z" fill="#3A3B3B"/>
<path d="M13.0152 1.36774C13.0152 1.65621 12.7392 1.89048 12.5299 1.89048C12.3212 1.89048 12.1953 1.65621 12.1953 1.36774C12.1953 1.07864 12.3212 0.84375 12.5299 0.84375C12.7392 0.84375 13.0152 1.07864 13.0152 1.36774Z" fill="#3A3B3B"/>
<path d="M12.1953 1.36558C12.1953 1.6148 12.2894 1.82353 12.4501 1.87524C12.5137 1.75561 12.5548 1.56683 12.5548 1.35312C12.5548 1.15063 12.5174 0.971812 12.4601 0.851562C12.2931 0.898291 12.1953 1.10951 12.1953 1.36558Z" fill="#DE4F4A"/>
<path d="M9.0545 1.05469H8.91992V12.0995H9.0545V1.05469Z" fill="#121312"/>
<path d="M9.38654 1.05469H9.04199V12.0995H9.38654V1.05469Z" fill="#58585A"/>
<path d="M9.48779 1.05469H9.36816V12.0995H9.48779V1.05469Z" fill="#121312"/>
<path d="M9.60572 1.05469H9.47363V12.0995H9.60572V1.05469Z" fill="#58585A"/>
<path d="M9.68088 1.05469H9.59863V12.0995H9.68088V1.05469Z" fill="#121312"/>
<path d="M9.98106 7.88281H8.90193C8.85707 7.88281 8.82031 7.91957 8.82031 7.96443V8.76194C8.82031 8.80742 8.85707 8.84418 8.90193 8.84418H9.98106C10.0259 8.84418 10.0627 8.80742 10.0627 8.76194V7.96443C10.0627 7.91957 10.0259 7.88281 9.98106 7.88281ZM9.83277 8.70587C9.77608 8.70587 9.72997 8.66038 9.72997 8.60368C9.72997 8.54761 9.77608 8.5015 9.83277 8.5015C9.88885 8.5015 9.93495 8.54699 9.93495 8.60368C9.93495 8.66038 9.88947 8.70587 9.83277 8.70587ZM9.83277 8.23546C9.77608 8.23546 9.72997 8.18998 9.72997 8.13328C9.72997 8.07658 9.77608 8.0311 9.83277 8.0311C9.88885 8.0311 9.93495 8.07658 9.93495 8.13328C9.93495 8.18998 9.88947 8.23546 9.83277 8.23546Z" fill="#FECD31"/>
<path d="M9.9693 4.29442C9.9693 4.33928 9.93254 4.37666 9.88768 4.37666H8.94002C8.89454 4.37666 8.8584 4.33928 8.8584 4.29442V4.08943C8.8584 4.04457 8.89516 4.00781 8.94002 4.00781H9.88768C9.93254 4.00781 9.9693 4.04457 9.9693 4.08943V4.29442Z" fill="#FECD31"/>
<path d="M7.92445 7.44531H7.09766V10.1724H7.92445V7.44531Z" fill="#121312"/>
<path d="M7.97046 11.4297H7.06641V11.9749H7.97046V11.4297Z" fill="#121312"/>
<path d="M8.94037 1.05469H7.89551V12.0995H8.94037V1.05469Z" fill="#58585A"/>
<path d="M6.64797 7.14844V15.073L0.77757 15.1671L0 15.3927L6.64797 15.4494V15.4544H7.119V15.0656V7.14844H6.64797Z" fill="#58585A"/>
<path d="M8.75547 9.73384C8.75547 9.82481 8.68195 9.89833 8.59223 9.89833H8.24394C8.15298 9.89833 8.08008 9.82481 8.08008 9.73384V8.8273C8.08008 8.73634 8.15298 8.66406 8.24394 8.66406H8.59223C8.68257 8.66406 8.75547 8.73634 8.75547 8.8273V9.73384Z" fill="#3A3B3B"/>
<path d="M8.6781 9.66004C8.6781 9.73543 8.6214 9.79649 8.55162 9.79649H8.28371C8.21393 9.79649 8.15723 9.73543 8.15723 9.66004V8.90926C8.15723 8.83387 8.21393 8.77344 8.28371 8.77344H8.55162C8.6214 8.77344 8.6781 8.83387 8.6781 8.90926V9.66004Z" fill="#B3B3B4"/>
<path d="M9.40001 9.74077L8.51465 9.43049L8.60125 9.1875L9.48537 9.49716L9.40001 9.74077Z" fill="#6B6B6B"/>
<path d="M9.31338 9.23931L9.10156 9.84375L9.98588 10.1536L10.1977 9.5492L9.31338 9.23931Z" fill="#3A3B3B"/>
<path d="M12.7995 14.223H8.84375L9.30792 10.4866C9.30792 10.4866 11.374 10.3776 12.3565 11.6872C13.3378 12.9956 12.7995 14.223 12.7995 14.223Z" fill="#121312"/>
<path d="M24.4868 11.3828H19.25V14.3087H24.4868V11.3828Z" fill="#121312"/>
<path d="M18.6462 8.35938H15.6904V8.81047H18.6462V8.35938Z" fill="#2A3030"/>
<path d="M19.9655 8.66406C19.9655 8.66406 16.3786 8.66406 15.4172 8.66406C14.2858 8.66406 13.6035 9.29085 13.6035 11.1532H20.006L19.9655 8.66406Z" fill="#3A3B3B"/>
<path d="M16.6864 8.66406H15.4172C14.2858 8.66406 13.6035 9.29085 13.6035 11.1532H14.8721C14.8727 9.29085 15.5543 8.66406 16.6864 8.66406Z" fill="#121312"/>
<path d="M20.0884 1.60077C20.0884 0.822581 19.6996 0.148438 18.5538 0.148438H14.626C13.7257 0.148438 13.2024 0.407004 12.6759 1.71604C12.1986 2.90233 9.28711 11.5833 9.28711 11.5833L20.4366 11.5765C20.4366 11.5771 20.0884 2.37772 20.0884 1.60077ZM9.9706 11.0924C10.6541 9.05934 12.7407 2.8718 13.132 1.90046C13.6155 0.69797 13.9955 0.640026 14.6267 0.640026H18.5544C19.2759 0.640026 19.5974 0.935976 19.5974 1.60077C19.5974 2.28052 19.8528 9.12725 19.927 11.0868C19.0584 11.0868 11.1158 11.0917 9.9706 11.0924ZM18.9737 11.4201H15.2503H18.9737Z" fill="#282E2E"/>
<path d="M18.6778 7.63925L18.5977 8.34375L18.7877 8.36538L18.8679 7.66089L18.6778 7.63925Z" fill="#2A3030"/>
<path d="M19.314 6.11753C19.2018 7.11379 19.0585 7.91442 18.7588 7.88077C18.4591 7.84775 18.185 6.99915 18.2971 6.00289C18.4087 5.00725 18.8647 4.24027 19.1638 4.27454C19.4635 4.30819 19.4255 5.12127 19.314 6.11753Z" fill="#6B6B73"/>
<path d="M17.2143 8.57622C16.3071 8.57622 15.5713 8.53946 15.5713 8.33012C15.5713 8.12139 16.3071 7.86719 17.2143 7.86719C18.1221 7.86719 18.8573 8.12139 18.8573 8.33012C18.8579 8.53946 18.1221 8.57622 17.2143 8.57622Z" fill="#6B6B73"/>
<path d="M12.3787 13.4561C12.3787 14.8599 11.2404 15.9982 9.83662 15.9982C8.43289 15.9982 7.29395 14.8599 7.29395 13.4561C7.29395 12.053 8.43226 10.9141 9.83662 10.9141C11.241 10.9141 12.3787 12.053 12.3787 13.4561Z" fill="#3A3B3B"/>
<path d="M9.83664 14.728C10.5403 14.728 11.1108 14.1575 11.1108 13.4538C11.1108 12.7501 10.5403 12.1797 9.83664 12.1797C9.13295 12.1797 8.5625 12.7501 8.5625 13.4538C8.5625 14.1575 9.13295 14.728 9.83664 14.728Z" fill="#6B6B6B"/>
<path d="M11.0337 13.4553C11.0337 14.117 10.4979 14.6535 9.83618 14.6535C9.1745 14.6535 8.63867 14.117 8.63867 13.4553C8.63867 12.7936 9.1745 12.2578 9.83618 12.2578C10.4979 12.2578 11.0337 12.7936 11.0337 13.4553Z" fill="#B3B3B4"/>
<path d="M9.7519 12.3989C9.7357 12.4014 9.72012 12.4033 9.70517 12.4057C9.66654 12.4114 9.641 12.4475 9.64723 12.4855C9.65346 12.5235 9.68772 12.5484 9.72573 12.5434H9.72698C9.73882 12.5422 9.74878 12.5409 9.75938 12.5391C9.76249 12.5391 9.76561 12.5385 9.76872 12.5385C9.80735 12.5335 9.83477 12.4986 9.82978 12.46C9.82542 12.4219 9.78991 12.3945 9.7519 12.3989ZM9.12075 12.693C9.10206 12.693 9.08336 12.7011 9.06966 12.7142C9.05782 12.7266 9.0466 12.7378 9.03601 12.7509C9.01047 12.7802 9.01358 12.8244 9.04224 12.85C9.05533 12.8618 9.07215 12.8674 9.08897 12.8674C9.10766 12.8674 9.12635 12.8606 9.14006 12.845C9.14193 12.8444 9.14318 12.8419 9.14505 12.8406C9.14816 12.8375 9.15128 12.8332 9.15439 12.83L9.15501 12.8288L9.15626 12.8276C9.16125 12.8219 9.16748 12.8157 9.17308 12.8101C9.19738 12.7821 9.19676 12.7391 9.16935 12.7129C9.15502 12.6992 9.13819 12.693 9.12075 12.693ZM8.84037 13.4195C8.83975 13.4195 8.8385 13.4195 8.83788 13.4195C8.79863 13.4213 8.76872 13.4537 8.77059 13.4917C8.77121 13.5098 8.77121 13.526 8.77308 13.5416C8.77558 13.5783 8.8061 13.6051 8.84162 13.6051C8.84349 13.6051 8.84536 13.6051 8.84723 13.6051C8.88461 13.6033 8.91265 13.5721 8.91265 13.5353C8.91078 13.5179 8.91078 13.4998 8.90953 13.4811C8.90517 13.4456 8.87526 13.4195 8.84037 13.4195ZM9.16748 14.126C9.14816 14.126 9.12947 14.1329 9.11576 14.1478C9.08959 14.1758 9.09146 14.2207 9.12075 14.2475C9.13072 14.2568 9.14255 14.2674 9.15751 14.2786C9.17059 14.2905 9.18617 14.2948 9.20174 14.2948C9.2223 14.2948 9.24224 14.2867 9.25533 14.2699C9.27963 14.2419 9.27713 14.1995 9.25034 14.1752C9.23726 14.1628 9.22417 14.1515 9.21109 14.1403C9.19863 14.131 9.18305 14.126 9.16748 14.126ZM9.94816 14.3771C9.94754 14.3771 9.94692 14.3771 9.94692 14.3777C9.92822 14.379 9.91016 14.3808 9.89146 14.3827C9.85657 14.3883 9.8304 14.4188 9.8329 14.4556C9.83477 14.493 9.86592 14.521 9.90268 14.521C9.90392 14.521 9.90517 14.521 9.90642 14.521C9.92262 14.5204 9.93819 14.5185 9.95564 14.516C9.99427 14.5123 10.0217 14.4774 10.0173 14.4394C10.0142 14.4033 9.98368 14.3771 9.94816 14.3771ZM10.6273 13.9945C10.6074 13.9945 10.5868 14.0039 10.5731 14.0201C10.5656 14.0288 10.56 14.0369 10.5531 14.045C10.5513 14.0481 10.5482 14.0512 10.545 14.055C10.5201 14.0836 10.5245 14.1279 10.5538 14.1522C10.5669 14.1634 10.5831 14.1696 10.5999 14.1696C10.6198 14.1696 10.6391 14.1603 10.6528 14.1441C10.6634 14.1322 10.6734 14.1191 10.6834 14.1073C10.7077 14.0768 10.7021 14.0338 10.6715 14.0095C10.6578 14.0008 10.6429 13.9945 10.6273 13.9945ZM10.8229 13.2413C10.8198 13.2413 10.8161 13.2413 10.813 13.2419C10.7743 13.2469 10.7482 13.283 10.7538 13.321C10.7556 13.3347 10.7581 13.349 10.76 13.3628C10.7631 13.3989 10.7943 13.4257 10.8292 13.4257C10.8317 13.4257 10.8335 13.4257 10.836 13.4257C10.8746 13.4213 10.9027 13.3871 10.8989 13.349C10.8971 13.3316 10.8952 13.3142 10.8933 13.3017C10.8871 13.2668 10.8566 13.2413 10.8229 13.2413ZM10.4192 12.5765C10.3968 12.5765 10.3756 12.5864 10.3619 12.6051C10.3388 12.6363 10.3457 12.6799 10.3774 12.7029C10.3893 12.7117 10.3999 12.7204 10.4111 12.7285C10.4242 12.7391 10.4397 12.7441 10.4547 12.7441C10.4753 12.7441 10.4958 12.7341 10.5095 12.7173C10.5338 12.6874 10.5282 12.6425 10.4977 12.6188C10.4865 12.6095 10.4734 12.5995 10.4597 12.5908C10.4478 12.5808 10.4335 12.5765 10.4192 12.5765Z" fill="#6B6B6B"/>
<path d="M10.4465 13.4537C10.4465 13.7908 10.1736 14.0631 9.83653 14.0631C9.49946 14.0631 9.22656 13.7902 9.22656 13.4537C9.22656 13.1173 9.49946 12.8438 9.83653 12.8438C10.173 12.8438 10.4465 13.1173 10.4465 13.4537Z" fill="#6B6B6B"/>
<path d="M10.0767 13.4586C10.0767 13.5907 9.96953 13.6991 9.8362 13.6991C9.70349 13.6991 9.5957 13.5913 9.5957 13.4586C9.5957 13.3265 9.70349 13.2188 9.8362 13.2188C9.96891 13.2188 10.0767 13.3265 10.0767 13.4586Z" fill="#B3B3B4"/>
<path d="M23.9772 13.9495C23.9772 15.0822 23.0588 16.0006 21.9261 16.0006C20.7928 16.0006 19.875 15.0822 19.875 13.9495C19.875 12.8168 20.7934 11.8984 21.9261 11.8984C23.0588 11.8984 23.9772 12.8168 23.9772 13.9495Z" fill="#3A3B3B"/>
<path d="M22.9551 13.9499C22.9551 14.5175 22.4947 14.9779 21.9271 14.9779C21.3589 14.9779 20.8984 14.5175 20.8984 13.9499C20.8984 13.3823 21.3589 12.9219 21.9271 12.9219C22.4947 12.9219 22.9551 13.3823 22.9551 13.9499Z" fill="#6B6B6B"/>
<path d="M22.892 13.9507C22.892 14.4847 22.4603 14.9171 21.9263 14.9171C21.3924 14.9171 20.96 14.4847 20.96 13.9507C20.96 13.4168 21.3924 12.9844 21.9263 12.9844C22.4597 12.9844 22.892 13.4168 22.892 13.9507Z" fill="#B3B3B4"/>
<path d="M21.858 13.0942C21.8455 13.0948 21.8325 13.0973 21.82 13.0998C21.7895 13.1041 21.7677 13.1334 21.7733 13.1639C21.7789 13.1945 21.8057 13.215 21.8368 13.2113C21.8368 13.2113 21.8374 13.2113 21.8381 13.2113C21.8474 13.21 21.8561 13.2088 21.8649 13.2069C21.8673 13.2069 21.8692 13.2069 21.8717 13.2069C21.9029 13.2032 21.9253 13.1745 21.9215 13.1428C21.9172 13.1128 21.8885 13.0904 21.858 13.0942ZM21.3483 13.3322C21.3334 13.3322 21.3184 13.3378 21.3078 13.3484C21.2979 13.359 21.2891 13.3677 21.2811 13.3776C21.2605 13.4007 21.263 13.4368 21.286 13.4568C21.2966 13.4667 21.3103 13.4711 21.324 13.4711C21.339 13.4711 21.3539 13.4655 21.3652 13.453C21.367 13.4524 21.367 13.4512 21.3689 13.4487C21.3714 13.4468 21.3739 13.4431 21.3764 13.4406C21.3764 13.4406 21.377 13.4393 21.3776 13.4393C21.382 13.435 21.3863 13.43 21.3907 13.4262C21.41 13.4032 21.4094 13.3689 21.3876 13.3471C21.3764 13.3359 21.362 13.3322 21.3483 13.3322ZM21.1222 13.9185C21.1215 13.9185 21.1209 13.9185 21.1203 13.9185C21.0892 13.9185 21.0642 13.944 21.0655 13.9764C21.0667 13.9901 21.0667 14.0032 21.0673 14.0157C21.0698 14.0449 21.0941 14.0667 21.1234 14.0667C21.1247 14.0667 21.1265 14.0667 21.1278 14.0667C21.1577 14.0643 21.1801 14.04 21.1801 14.0113C21.1789 13.9963 21.1782 13.982 21.1782 13.9671C21.1751 13.939 21.1502 13.9185 21.1222 13.9185ZM21.3857 14.4873C21.3708 14.4873 21.3552 14.4935 21.3446 14.5054C21.3234 14.5284 21.3253 14.5646 21.3483 14.5851C21.3571 14.5932 21.3664 14.6013 21.3782 14.6107C21.3888 14.62 21.4019 14.6244 21.4144 14.6244C21.4306 14.6244 21.4462 14.6175 21.458 14.6032C21.4773 14.5808 21.4742 14.5477 21.4536 14.5259C21.443 14.5172 21.4325 14.5079 21.4219 14.4985C21.4113 14.4917 21.3988 14.4873 21.3857 14.4873ZM22.0163 14.6904C22.0156 14.6904 22.015 14.6904 22.0144 14.6904C22.0001 14.6923 21.9857 14.6935 21.9701 14.6942C21.9427 14.6985 21.9215 14.7234 21.9234 14.7527C21.9247 14.7826 21.9496 14.8057 21.9795 14.8057C21.9801 14.8057 21.9814 14.8057 21.9826 14.8057C21.9957 14.8057 22.0082 14.8051 22.0225 14.8026C22.0536 14.7988 22.0761 14.772 22.0723 14.7403C22.0692 14.711 22.0449 14.6904 22.0163 14.6904ZM22.5639 14.3814C22.5477 14.3814 22.5309 14.3895 22.5197 14.4026C22.5147 14.4094 22.5091 14.4163 22.5041 14.4231C22.5022 14.425 22.4997 14.4281 22.4972 14.43C22.4773 14.4543 22.4804 14.4904 22.5041 14.5097C22.5147 14.5185 22.5272 14.5228 22.5409 14.5228C22.5571 14.5228 22.5726 14.516 22.5839 14.5035C22.592 14.4929 22.6001 14.4829 22.6088 14.473C22.6281 14.4487 22.6237 14.4125 22.5994 14.3951C22.5888 14.3857 22.5764 14.3814 22.5639 14.3814ZM22.7215 13.7739C22.7191 13.7739 22.7159 13.7739 22.7134 13.7739C22.6829 13.7789 22.6617 13.8076 22.6661 13.8387C22.6673 13.8499 22.6698 13.8618 22.6711 13.8724C22.6736 13.9004 22.6979 13.9228 22.7272 13.9228C22.729 13.9228 22.7309 13.9228 22.7328 13.9228C22.7645 13.9191 22.7863 13.8929 22.7839 13.8611C22.7826 13.8468 22.7814 13.8325 22.7795 13.8219C22.7739 13.7945 22.7496 13.7739 22.7215 13.7739ZM22.3957 13.2368C22.3776 13.2368 22.3608 13.2449 22.3496 13.2611C22.3315 13.2861 22.3365 13.3216 22.3627 13.339C22.372 13.3459 22.3807 13.3527 22.3895 13.3596C22.4001 13.3683 22.4125 13.3727 22.425 13.3727C22.4412 13.3727 22.458 13.3646 22.4692 13.3515C22.4885 13.3272 22.4842 13.2917 22.4599 13.2717C22.4505 13.2643 22.4406 13.2568 22.4293 13.2487C22.4194 13.2406 22.4075 13.2368 22.3957 13.2368Z" fill="#6B6B6B"/>
<path d="M22.418 13.9531C22.418 14.2254 22.1975 14.4454 21.9264 14.4454C21.6542 14.4454 21.4336 14.2254 21.4336 13.9531C21.4336 13.6815 21.6542 13.4609 21.9264 13.4609C22.1975 13.4609 22.418 13.6815 22.418 13.9531Z" fill="#6B6B6B"/>
<path d="M22.1209 13.9516C22.1209 14.0581 22.0343 14.146 21.9272 14.146C21.82 14.146 21.7334 14.0581 21.7334 13.9516C21.7334 13.845 21.82 13.7578 21.9272 13.7578C22.0343 13.7578 22.1209 13.845 22.1209 13.9516Z" fill="#B3B3B4"/>
<path d="M25.4957 9.1952C25.4957 8.6357 25.1823 8.59521 24.7319 8.54038C24.2814 8.48555 20.3063 7.96094 20.3063 7.96094C20.3063 7.96094 19.7668 10.5996 19.6172 11.022C19.4671 11.445 19.464 11.4245 18.973 11.4245H12.1979C11.7493 10.8936 11.0116 10.427 9.79916 10.3641C9.54371 10.351 9.20041 10.407 8.98047 10.4681L8.98919 10.7186C9.2571 10.6363 9.54122 10.5908 9.83654 10.5908C11.421 10.5908 12.7057 11.8762 12.7057 13.46C12.7057 13.8394 12.6303 14.2014 12.4964 14.5329H19.482C19.4372 14.3454 19.4116 14.1516 19.4116 13.951C19.4116 12.5616 20.5375 11.4363 21.9269 11.4363C23.3157 11.4363 24.4415 12.5616 24.4415 13.951C24.4415 14.1516 24.416 14.3454 24.3711 14.5329H24.8353C25.449 14.5329 25.5101 14.1447 25.5101 13.756C25.5088 13.3678 25.4957 9.75408 25.4957 9.1952Z" fill="#FECD31"/>
<path d="M8.65755 9.27458C8.65755 9.40417 8.55226 9.50947 8.42204 9.50947C8.29244 9.50947 8.18652 9.40417 8.18652 9.27458C8.18652 9.14436 8.29182 9.03907 8.42204 9.03907C8.55163 9.03844 8.65755 9.14436 8.65755 9.27458Z" fill="#3A3B3B"/>
<path opacity="0.4" d="M19.4109 13.9516C19.4109 12.5622 20.5368 11.437 21.9262 11.437C23.315 11.437 24.4408 12.5622 24.4408 13.9516C24.4408 14.1522 24.4153 14.346 24.3704 14.5335H24.8346C25.4483 14.5335 25.5093 14.1454 25.5093 13.7566C25.5093 13.3678 25.4963 9.75408 25.4963 9.1952C25.4963 8.6357 25.1829 8.59521 24.7324 8.54038C24.2819 8.48555 20.3068 7.96094 20.3068 7.96094C20.3068 7.96094 19.7673 10.5996 19.6178 11.022C19.4676 11.445 19.4645 11.4245 18.9735 11.4245H17.7424L15.8115 14.5341H19.4813C19.4364 14.346 19.4109 14.1522 19.4109 13.9516Z" fill="#FECD31"/>
<g opacity="0.8">
<path d="M22.6582 9.81321H24.6831C24.6831 9.6618 24.5604 9.53906 24.409 9.53906H22.9323C22.7809 9.53906 22.6582 9.66118 22.6582 9.81321Z" fill="#FECD31"/>
<path d="M22.6582 10.2891H24.6831C24.6831 10.1377 24.5604 10.0156 24.409 10.0156H22.9323C22.7809 10.0156 22.6582 10.1384 22.6582 10.2891Z" fill="#FECD31"/>
<path d="M22.6582 10.7735H24.6831C24.6831 10.6221 24.5604 10.5 24.409 10.5H22.9323C22.7809 10.4994 22.6582 10.6221 22.6582 10.7735Z" fill="#FECD31"/>
</g>
<path opacity="0.3" d="M7.89551 4.0335L8.94099 2.95001V1.05469H7.89551V4.0335Z" fill="#58585A"/>
<path d="M10.3712 1.08008C10.3712 1.12494 10.3345 1.1617 10.289 1.1617H7.87779C7.83168 1.1617 7.79492 1.12494 7.79492 1.08008V0.98787C7.79492 0.94301 7.83168 0.90625 7.87779 0.90625H10.289C10.3345 0.90625 10.3712 0.94301 10.3712 0.98787V1.08008Z" fill="#FECD31"/>
<path opacity="0.3" d="M6.64797 10.1501V15.0747L0.77757 15.1688L0 15.3943L6.64797 15.451V15.456H7.119V9.67969L6.64797 10.1501Z" fill="#58585A"/>
<path opacity="0.7" d="M12.6816 11.9483H18.6181C18.6181 11.8648 18.5508 11.7969 18.4667 11.7969H12.833C12.7496 11.7969 12.6816 11.8648 12.6816 11.9483Z" fill="#FECD31"/>
<path d="M25.725 13.1847C25.725 13.3536 25.5873 13.4919 25.4185 13.4919C25.249 13.4919 25.1113 13.3536 25.1113 13.1847V12.9094C25.1113 12.7399 25.249 12.6016 25.4185 12.6016C25.5873 12.6016 25.725 12.7399 25.725 12.9094V13.1847Z" fill="#DE4F4A"/>
<path d="M19.9865 0.25919C19.9865 0.34891 19.9124 0.423053 19.8226 0.423053H13.1541C13.0638 0.423053 12.9902 0.34891 12.9902 0.25919V0.163863C12.9902 0.0741433 13.0644 0 13.1541 0H19.8233C19.913 0 19.9871 0.0741433 19.9871 0.163863V0.25919H19.9865Z" fill="#FECD31"/>
</g>
<defs>
<clipPath id="clip0_604_1941">
<rect width="25.7246" height="16" fill="white"/>
</clipPath>
</defs>
</svg>
