<svg width="16" height="16" viewBox="0 0 16 16" fill="none" xmlns="http://www.w3.org/2000/svg">
<g clip-path="url(#clip0_618_1847)">
<path d="M8.00023 0.476562C3.84517 0.476562 0.476562 3.84488 0.476562 8.00023C0.476562 9.70535 1.04405 11.278 2.00023 12.5399L1.01269 15.2261L4.04244 14.3998C5.19208 15.1124 6.54809 15.5239 8.00023 15.5239C12.1553 15.5239 15.5239 12.1556 15.5239 8.00023C15.5239 3.84517 12.1553 0.476562 8.00023 0.476562Z" fill="white"/>
<path d="M8 16C6.57892 16 5.19068 15.6248 3.97098 14.9128L0.246519 15.9285L1.46475 12.615C1.0236 11.9915 0.675656 11.3117 0.428844 10.5904C0.144218 9.75846 0 8.887 0 8C0 6.92012 0.211637 5.87249 0.628756 4.88583C1.0318 3.93317 1.60868 3.07783 2.34325 2.34325C3.07783 1.60868 3.93346 1.0318 4.88612 0.629049C5.87249 0.211637 6.92012 0 8 0C9.07988 0 10.1275 0.211637 11.1142 0.628756C12.0668 1.0318 12.9225 1.60838 13.657 2.34296C14.3916 3.07753 14.9682 3.93317 15.3712 4.88583C15.7887 5.87249 16.0003 6.92012 16.0003 8C16.0003 9.07988 15.7887 10.1275 15.3712 11.1142C14.9682 12.0668 14.3916 12.9225 13.657 13.6567C12.9225 14.3913 12.0671 14.9682 11.1142 15.371C10.1275 15.7884 9.07988 16 8 16ZM4.11696 13.8854L4.29313 13.9947C5.40407 14.6833 6.68592 15.0473 8 15.0473C11.8857 15.0473 15.047 11.886 15.047 8.00029C15.047 4.11461 11.8857 0.953246 8 0.953246C4.11432 0.953246 0.952953 4.11432 0.952953 8C0.952953 9.54976 1.44628 11.0201 2.37989 12.2518L2.5373 12.4593L1.77869 14.5229L4.11696 13.8854Z" fill="#CECECE"/>
<path d="M5.23274 3.86388C5.41037 3.7988 5.61204 3.82636 5.77619 3.91576C5.87468 3.96999 5.94914 4.05558 6.02828 4.13326C6.43162 4.5369 6.83555 4.94024 7.23889 5.34387C7.36083 5.46757 7.43968 5.63729 7.43763 5.81258C7.44408 5.95739 7.39425 6.09867 7.31774 6.21944C7.26645 6.28715 7.21134 6.35281 7.14919 6.41085C6.95397 6.60695 6.75699 6.8013 6.56294 6.99828C6.61805 7.11729 6.68957 7.2275 6.7523 7.34241C6.81532 7.45849 6.88685 7.56929 6.95749 7.68067C7.2043 8.0846 7.50622 8.45423 7.84361 8.78547C8.15403 9.09003 8.4967 9.36293 8.86838 9.58922C9.08764 9.73256 9.31716 9.8586 9.54785 9.98289C9.76593 9.76422 9.98402 9.54584 10.203 9.32775C10.2836 9.24626 10.38 9.17972 10.4897 9.14425C10.6556 9.08094 10.8473 9.09237 11.0073 9.16858C11.1334 9.2231 11.2236 9.33039 11.3198 9.42419C11.7187 9.82372 12.1186 10.2221 12.5172 10.6219C12.6409 10.7447 12.7113 10.9165 12.7162 11.09V11.1211C12.7124 11.224 12.6796 11.3231 12.638 11.4166C12.5527 11.5854 12.3979 11.7009 12.2686 11.834C12.2086 11.8894 12.1581 11.9577 12.0831 11.9934C11.8908 12.1353 11.6754 12.2473 11.4473 12.3191C11.3415 12.3598 11.2289 12.3763 11.1187 12.3997C10.9968 12.4246 10.8716 12.4287 10.7482 12.4155C10.592 12.4144 10.4375 12.39 10.2836 12.366C10.147 12.3487 10.0151 12.3071 9.88025 12.2795C9.74717 12.2379 9.61087 12.2057 9.4816 12.1526C9.31423 12.1034 9.1574 12.0266 8.9956 11.9624C8.85109 11.8938 8.70804 11.8223 8.56558 11.7499C8.36919 11.6364 8.16927 11.5277 7.98314 11.3975C7.75098 11.253 7.53759 11.0818 7.31862 10.9188C7.07826 10.7245 6.84434 10.5219 6.62215 10.3071C6.41345 10.1177 6.22467 9.90785 6.02769 9.70676C5.46372 9.10263 4.92964 8.45717 4.54975 7.71849C4.36039 7.33889 4.20943 6.93496 4.14817 6.51345C4.09453 6.21446 4.08925 5.90726 4.12179 5.60593C4.1552 5.20024 4.29766 4.80218 4.54066 4.47475C4.56206 4.44251 4.57437 4.40411 4.60339 4.37714C4.70482 4.27543 4.80624 4.17371 4.90766 4.072C4.99882 3.97996 5.10581 3.89847 5.23274 3.86388Z" fill="#CECECE"/>
</g>
<defs>
<clipPath id="clip0_618_1847">
<rect width="16" height="16" fill="white"/>
</clipPath>
</defs>
</svg>
